<svg width="148" height="140" viewBox="0 0 148 140" fill="none" xmlns="http://www.w3.org/2000/svg">
<path d="M98.822 24.7059C98.822 11.0612 87.7608 0 74.1161 0C60.4714 0 49.4102 11.0612 49.4102 24.7059C49.4102 38.3507 60.4714 49.4119 74.1161 49.4119C87.7608 49.4119 98.822 38.3507 98.822 24.7059Z" fill="#FA7070"/>
<path d="M73.5248 140C50.8548 140 32.8819 132.991 19.6066 118.977C6.53552 104.731 0 85.6601 0 61.7643H38.2941C38.2941 74.4016 41.4599 84.2816 47.791 91.4044C54.1224 98.527 62.7004 102.088 73.5248 102.088C84.3493 102.088 92.9273 98.6419 99.2584 91.749C105.59 84.6261 108.755 74.7462 108.755 62.1092H147.05C147.05 86.2345 140.411 105.305 127.136 119.321C114.066 133.106 96.1949 140 73.5248 140Z" fill="#FA7070"/>
</svg>
