<svg width="233" height="412" viewBox="0 0 233 412" fill="none" xmlns="http://www.w3.org/2000/svg">
<g clip-path="url(#clip0_369_6)">
<rect x="31" width="202" height="412" rx="22" fill="#F4F4F4"/>
<rect x="95" y="402" width="74" height="4" rx="2" fill="#D9D9D9"/>
<rect x="31" width="202" height="44" fill="#E4E4E4"/>
<rect x="93" y="15" width="123" height="18" rx="7.5" fill="#D9D9D9"/>
<rect x="70" y="18" width="11" height="11" rx="3" fill="#D9D9D9"/>
<path d="M51.5 19.625C51.0531 19.625 50.6875 19.9906 50.6875 20.4375C50.6875 20.8844 51.0531 21.25 51.5 21.25C51.9469 21.25 52.3125 20.8844 52.3125 20.4375C52.3125 19.9906 51.9469 19.625 51.5 19.625ZM51.5 27.75C51.0531 27.75 50.6875 28.1156 50.6875 28.5625C50.6875 29.0094 51.0531 29.375 51.5 29.375C51.9469 29.375 52.3125 29.0094 52.3125 28.5625C52.3125 28.1156 51.9469 27.75 51.5 27.75ZM51.5 23.6875C51.0531 23.6875 50.6875 24.0531 50.6875 24.5C50.6875 24.9469 51.0531 25.3125 51.5 25.3125C51.9469 25.3125 52.3125 24.9469 52.3125 24.5C52.3125 24.0531 51.9469 23.6875 51.5 23.6875Z" fill="#BEBEBE"/>
</g>
<path d="M16.1716 26.0001L10.8076 20.6362L12.2218 19.222L20 27.0001L12.2218 34.7783L10.8076 33.3641L16.1716 28.0001H4V26.0001H16.1716Z" fill="#FF6584"/>
<defs>
<clipPath id="clip0_369_6">
<rect x="31" width="202" height="412" rx="25" fill="white"/>
</clipPath>
</defs>
</svg>
