<svg width="233" height="412" viewBox="0 0 233 412" fill="none" xmlns="http://www.w3.org/2000/svg">
<g clip-path="url(#clip0_369_7)">
<rect x="31" width="202" height="412" rx="22" fill="#F4F4F4"/>
<rect x="95" y="402" width="74" height="4" rx="2" fill="#D9D9D9"/>
<rect x="31" width="202" height="44" fill="#E4E4E4"/>
<rect x="93" y="15" width="123" height="18" rx="7.5" fill="#D9D9D9"/>
<rect x="70" y="18" width="11" height="11" rx="3" fill="#D9D9D9"/>
<path d="M51.5 19.625C51.0531 19.625 50.6875 19.9906 50.6875 20.4375C50.6875 20.8844 51.0531 21.25 51.5 21.25C51.9469 21.25 52.3125 20.8844 52.3125 20.4375C52.3125 19.9906 51.9469 19.625 51.5 19.625ZM51.5 27.75C51.0531 27.75 50.6875 28.1156 50.6875 28.5625C50.6875 29.0094 51.0531 29.375 51.5 29.375C51.9469 29.375 52.3125 29.0094 52.3125 28.5625C52.3125 28.1156 51.9469 27.75 51.5 27.75ZM51.5 23.6875C51.0531 23.6875 50.6875 24.0531 50.6875 24.5C50.6875 24.9469 51.0531 25.3125 51.5 25.3125C51.9469 25.3125 52.3125 24.9469 52.3125 24.5C52.3125 24.0531 51.9469 23.6875 51.5 23.6875Z" fill="#626262"/>
<rect x="45" y="49" width="91" height="188" rx="8" fill="#E4E4E4"/>
<path d="M125.125 169.916V170.833H123.292L123.291 175.416H129.708L129.708 170.833H127.875V169.916H130.167C130.42 169.916 130.625 170.121 130.625 170.374V178.624C130.625 178.877 130.42 179.083 130.167 179.083H122.833C122.58 179.083 122.375 178.877 122.375 178.624V170.374C122.375 170.121 122.58 169.916 122.833 169.916H125.125ZM129.708 176.333H123.291L123.292 178.166H129.708L129.708 176.333ZM128.792 176.791V177.708H127.875V176.791H128.792ZM126.958 169.916V172.208H128.333L126.5 174.041L124.667 172.208H126.042V169.916H126.958Z" fill="#A7A7A7"/>
</g>
<path d="M16.1716 174L10.8076 168.636L12.2218 167.222L20 175L12.2218 182.778L10.8076 181.364L16.1716 176H4V174H16.1716Z" fill="#FF6584"/>
<path d="M73.2809 178.199C72.4382 178.199 71.7817 177.997 71.3114 177.594C70.8412 177.191 70.6061 176.629 70.6061 175.908C70.6061 175.627 70.6427 175.331 70.716 175.02C70.7954 174.702 70.9023 174.388 71.0366 174.076L71.6046 174.25C71.4885 174.489 71.3939 174.739 71.3206 175.002C71.2473 175.258 71.2107 175.502 71.2107 175.734C71.2107 176.253 71.3664 176.656 71.6779 176.944C71.9954 177.231 72.4382 177.374 73.0061 177.374H73.5557C74.258 177.374 74.7771 177.264 75.113 177.044C75.455 176.824 75.6504 176.476 75.6993 176H74.5817C74.0932 176 73.7145 175.872 73.4458 175.615C73.1771 175.359 73.0428 174.998 73.0428 174.534C73.0428 174.26 73.0825 174 73.1618 173.756C73.2473 173.511 73.3634 173.301 73.5099 173.124C73.6565 172.94 73.8306 172.797 74.0321 172.693C74.2397 172.583 74.4657 172.528 74.71 172.528C75.2107 172.528 75.6016 172.763 75.8825 173.234C76.1695 173.698 76.3222 174.357 76.3405 175.212H76.7619V175.817L76.5787 176H76.3039C76.2062 176.751 75.913 177.304 75.4245 177.658C74.942 178.018 74.2275 178.199 73.2809 178.199ZM73.684 174.443C73.684 174.711 73.7542 174.907 73.8947 175.029C74.0413 175.151 74.2703 175.212 74.5817 175.212H75.7084V174.928C75.7084 174.434 75.6138 174.043 75.4245 173.756C75.2413 173.463 74.9848 173.316 74.655 173.316C74.3435 173.316 74.1023 173.42 73.9313 173.627C73.7664 173.835 73.684 174.107 73.684 174.443ZM75.2229 171.429C75.1008 171.429 75.0031 171.395 74.9298 171.328C74.8565 171.255 74.8199 171.139 74.8199 170.98C74.8199 170.821 74.8565 170.708 74.9298 170.641C75.0031 170.568 75.1008 170.531 75.2229 170.531H75.3237C75.4459 170.531 75.5436 170.568 75.6168 170.641C75.6901 170.708 75.7268 170.821 75.7268 170.98C75.7268 171.139 75.6901 171.255 75.6168 171.328C75.5436 171.395 75.4459 171.429 75.3237 171.429H75.2229ZM74.0413 171.429C73.9191 171.429 73.8214 171.395 73.7481 171.328C73.6748 171.255 73.6382 171.139 73.6382 170.98C73.6382 170.821 73.6748 170.708 73.7481 170.641C73.8214 170.568 73.9191 170.531 74.0413 170.531H74.142C74.2642 170.531 74.3619 170.568 74.4351 170.641C74.5084 170.708 74.5451 170.821 74.5451 170.98C74.5451 171.139 74.5084 171.255 74.4351 171.328C74.3619 171.395 74.2642 171.429 74.142 171.429H74.0413ZM76.5779 175.395L76.7611 175.212H77.0817C77.6008 175.212 77.8604 174.953 77.8604 174.434V172.986H78.5016V174.434C78.5016 174.953 78.7611 175.212 79.2802 175.212H79.6008V175.817L79.4176 176C78.5749 176 78.0802 175.701 77.9336 175.102H77.8878C77.8207 175.438 77.6894 175.673 77.4939 175.808C77.2985 175.936 76.9932 176 76.5779 176V175.395ZM78.7214 177.832C78.5993 177.832 78.5016 177.795 78.4283 177.722C78.355 177.655 78.3184 177.542 78.3184 177.383C78.3184 177.224 78.355 177.108 78.4283 177.035C78.5016 176.968 78.5993 176.934 78.7214 176.934H78.8222C78.9443 176.934 79.0421 176.968 79.1153 177.035C79.1886 177.108 79.2253 177.224 79.2253 177.383C79.2253 177.542 79.1886 177.655 79.1153 177.722C79.0421 177.795 78.9443 177.832 78.8222 177.832H78.7214ZM77.5397 177.832C77.4176 177.832 77.3199 177.795 77.2466 177.722C77.1733 177.655 77.1367 177.542 77.1367 177.383C77.1367 177.224 77.1733 177.108 77.2466 177.035C77.3199 176.968 77.4176 176.934 77.5397 176.934H77.6405C77.7627 176.934 77.8604 176.968 77.9336 177.035C78.0069 177.108 78.0436 177.224 78.0436 177.383C78.0436 177.542 78.0069 177.655 77.9336 177.722C77.8604 177.795 77.7627 177.832 77.6405 177.832H77.5397ZM79.4137 175.395L79.5969 175.212H79.9175C80.4366 175.212 80.6962 174.953 80.6962 174.434V172.986H81.3374V174.434C81.3374 174.953 81.5969 175.212 82.116 175.212H82.4366V175.817L82.2534 176C81.4107 176 80.916 175.701 80.7694 175.102H80.7236C80.6565 175.438 80.5252 175.673 80.3297 175.808C80.1343 175.936 79.829 176 79.4137 176V175.395ZM80.9618 177.832C80.8397 177.832 80.742 177.795 80.6687 177.722C80.5954 177.655 80.5588 177.542 80.5588 177.383C80.5588 177.224 80.5954 177.108 80.6687 177.035C80.742 176.968 80.8397 176.934 80.9618 176.934H81.0626C81.1847 176.934 81.2824 176.968 81.3557 177.035C81.429 177.108 81.4656 177.224 81.4656 177.383C81.4656 177.542 81.429 177.655 81.3557 177.722C81.2824 177.795 81.1847 177.832 81.0626 177.832H80.9618ZM88.561 176C88.329 176 88.1336 175.982 87.9748 175.945C87.8221 175.902 87.6816 175.823 87.5534 175.707C87.2358 175.902 86.79 176 86.216 176H82.2495V175.395L82.4327 175.212H82.9091L83.248 174.635V169.221H83.9259V172.574L83.8159 173.646L83.8617 173.664C84.0633 173.395 84.2648 173.172 84.4663 172.995C84.6679 172.812 84.8724 172.666 85.0801 172.556C85.2938 172.446 85.5076 172.366 85.7213 172.318C85.9412 172.269 86.1671 172.244 86.3992 172.244C86.9916 172.244 87.4526 172.409 87.7824 172.739C88.1122 173.063 88.2771 173.511 88.2771 174.085C88.2771 174.513 88.2068 174.867 88.0664 175.148C88.1946 175.191 88.3595 175.212 88.561 175.212H88.7442V175.817L88.561 176ZM86.216 175.212C86.674 175.212 87.0251 175.136 87.2694 174.983C87.5137 174.831 87.6358 174.562 87.6358 174.177C87.6358 173.798 87.5381 173.514 87.3427 173.325C87.1534 173.13 86.8847 173.032 86.5366 173.032H86.2618C86.0175 173.032 85.7946 173.056 85.5931 173.105C85.3976 173.148 85.2083 173.227 85.0251 173.343C84.848 173.453 84.6709 173.609 84.4938 173.811C84.3228 174.006 84.1396 174.253 83.9442 174.553L83.5503 175.166L83.5778 175.212H86.216ZM88.5652 175.395L88.7484 175.212H89.069C89.5881 175.212 89.8477 174.953 89.8477 174.434V172.986H90.4889V174.434C90.4889 174.953 90.7484 175.212 91.2675 175.212H91.5881V175.817L91.4049 176C90.5622 176 90.0675 175.701 89.9209 175.102H89.8751C89.808 175.438 89.6767 175.673 89.4812 175.808C89.2858 175.936 88.9805 176 88.5652 176V175.395ZM90.6813 171.887C90.5591 171.887 90.4614 171.853 90.3881 171.786C90.3148 171.713 90.2782 171.597 90.2782 171.438C90.2782 171.279 90.3148 171.166 90.3881 171.099C90.4614 171.026 90.5591 170.989 90.6813 170.989H90.782C90.9042 170.989 91.0019 171.026 91.0752 171.099C91.1484 171.166 91.1851 171.279 91.1851 171.438C91.1851 171.597 91.1484 171.713 91.0752 171.786C91.0019 171.853 90.9042 171.887 90.782 171.887H90.6813ZM89.4996 171.887C89.3774 171.887 89.2797 171.853 89.2064 171.786C89.1331 171.713 89.0965 171.597 89.0965 171.438C89.0965 171.279 89.1331 171.166 89.2064 171.099C89.2797 171.026 89.3774 170.989 89.4996 170.989H89.6003C89.7225 170.989 89.8202 171.026 89.8935 171.099C89.9667 171.166 90.0034 171.279 90.0034 171.438C90.0034 171.597 89.9667 171.713 89.8935 171.786C89.8202 171.853 89.7225 171.887 89.6003 171.887H89.4996ZM91.401 175.395L91.5842 175.212H91.8499C92.143 175.212 92.3537 175.145 92.4819 175.011C92.6163 174.876 92.6835 174.663 92.6835 174.369V169.221H93.3613V174.369C93.3613 174.931 93.2392 175.344 92.9949 175.606C92.7567 175.869 92.375 176 91.8499 176H91.401V175.395ZM94.7313 169.221H95.4092V176H94.7313V169.221ZM102.087 176.11C101.446 176.11 100.905 176.076 100.465 176.009C100.032 175.942 99.6806 175.835 99.4119 175.689C99.1432 175.542 98.9478 175.35 98.8257 175.111C98.7096 174.867 98.6516 174.571 98.6516 174.223C98.6516 173.979 98.6822 173.728 98.7432 173.472C98.8104 173.215 98.9112 172.931 99.0455 172.62L99.6135 172.794C99.3631 173.313 99.2379 173.759 99.2379 174.131C99.2379 174.528 99.415 174.821 99.7692 175.011C100.123 175.194 100.682 175.285 101.446 175.285H102.728C103.168 175.285 103.531 175.273 103.818 175.249C104.105 175.224 104.331 175.182 104.496 175.121C104.661 175.053 104.774 174.965 104.835 174.855C104.902 174.745 104.936 174.605 104.936 174.434V172.986H105.577V174.434C105.577 174.953 105.836 175.212 106.356 175.212H106.676V175.817L106.493 176C105.65 176 105.156 175.689 105.009 175.066H104.963C104.927 175.273 104.856 175.444 104.752 175.579C104.649 175.713 104.487 175.82 104.267 175.899C104.053 175.979 103.769 176.034 103.415 176.064C103.067 176.095 102.624 176.11 102.087 176.11ZM102.6 172.62C102.478 172.62 102.38 172.586 102.307 172.519C102.233 172.446 102.197 172.33 102.197 172.171C102.197 172.012 102.233 171.899 102.307 171.832C102.38 171.759 102.478 171.722 102.6 171.722H102.701C102.823 171.722 102.92 171.759 102.994 171.832C103.067 171.899 103.104 172.012 103.104 172.171C103.104 172.33 103.067 172.446 102.994 172.519C102.92 172.586 102.823 172.62 102.701 172.62H102.6ZM101.418 172.62C101.296 172.62 101.198 172.586 101.125 172.519C101.052 172.446 101.015 172.33 101.015 172.171C101.015 172.012 101.052 171.899 101.125 171.832C101.198 171.759 101.296 171.722 101.418 171.722H101.519C101.641 171.722 101.739 171.759 101.812 171.832C101.885 171.899 101.922 172.012 101.922 172.171C101.922 172.33 101.885 172.446 101.812 172.519C101.739 172.586 101.641 172.62 101.519 172.62H101.418ZM106.492 175.395L106.676 175.212H106.996C107.515 175.212 107.775 174.953 107.775 174.434V172.986H108.416V174.434C108.416 174.953 108.676 175.212 109.195 175.212H109.515V175.817L109.332 176C108.489 176 107.995 175.701 107.848 175.102H107.802C107.735 175.438 107.604 175.673 107.408 175.808C107.213 175.936 106.908 176 106.492 176V175.395ZM108.636 177.832C108.514 177.832 108.416 177.795 108.343 177.722C108.27 177.655 108.233 177.542 108.233 177.383C108.233 177.224 108.27 177.108 108.343 177.035C108.416 176.968 108.514 176.934 108.636 176.934H108.737C108.859 176.934 108.957 176.968 109.03 177.035C109.103 177.108 109.14 177.224 109.14 177.383C109.14 177.542 109.103 177.655 109.03 177.722C108.957 177.795 108.859 177.832 108.737 177.832H108.636ZM107.454 177.832C107.332 177.832 107.234 177.795 107.161 177.722C107.088 177.655 107.051 177.542 107.051 177.383C107.051 177.224 107.088 177.108 107.161 177.035C107.234 176.968 107.332 176.934 107.454 176.934H107.555C107.677 176.934 107.775 176.968 107.848 177.035C107.921 177.108 107.958 177.224 107.958 177.383C107.958 177.542 107.921 177.655 107.848 177.722C107.775 177.795 107.677 177.832 107.555 177.832H107.454ZM109.328 175.395L109.511 175.212H109.832C110.351 175.212 110.611 174.953 110.611 174.434V172.986H111.252V174.434C111.252 174.953 111.511 175.212 112.031 175.212H112.351V175.817L112.168 176C111.325 176 110.831 175.701 110.684 175.102H110.638C110.571 175.438 110.44 175.673 110.244 175.808C110.049 175.936 109.744 176 109.328 176V175.395ZM110.876 177.832C110.754 177.832 110.657 177.795 110.583 177.722C110.51 177.655 110.473 177.542 110.473 177.383C110.473 177.224 110.51 177.108 110.583 177.035C110.657 176.968 110.754 176.934 110.876 176.934H110.977C111.099 176.934 111.197 176.968 111.27 177.035C111.344 177.108 111.38 177.224 111.38 177.383C111.38 177.542 111.344 177.655 111.27 177.722C111.197 177.795 111.099 177.832 110.977 177.832H110.876ZM112.164 175.395L112.347 175.212H112.668C113.187 175.212 113.447 174.953 113.447 174.434V172.986H114.088V174.434C114.088 174.953 114.347 175.212 114.866 175.212H115.187V175.817L115.004 176C114.161 176 113.666 175.701 113.52 175.102H113.474C113.407 175.438 113.276 175.673 113.08 175.808C112.885 175.936 112.579 176 112.164 176V175.395ZM114.308 171.887C114.185 171.887 114.088 171.853 114.014 171.786C113.941 171.713 113.905 171.597 113.905 171.438C113.905 171.279 113.941 171.166 114.014 171.099C114.088 171.026 114.185 170.989 114.308 170.989H114.408C114.53 170.989 114.628 171.026 114.701 171.099C114.775 171.166 114.811 171.279 114.811 171.438C114.811 171.597 114.775 171.713 114.701 171.786C114.628 171.853 114.53 171.887 114.408 171.887H114.308ZM113.126 171.887C113.004 171.887 112.906 171.853 112.833 171.786C112.759 171.713 112.723 171.597 112.723 171.438C112.723 171.279 112.759 171.166 112.833 171.099C112.906 171.026 113.004 170.989 113.126 170.989H113.227C113.349 170.989 113.447 171.026 113.52 171.099C113.593 171.166 113.63 171.279 113.63 171.438C113.63 171.597 113.593 171.713 113.52 171.786C113.447 171.853 113.349 171.887 113.227 171.887H113.126ZM113.712 170.779C113.596 170.779 113.501 170.745 113.428 170.678C113.361 170.605 113.327 170.495 113.327 170.348C113.327 170.201 113.361 170.095 113.428 170.027C113.501 169.954 113.596 169.917 113.712 169.917H113.822C113.938 169.917 114.03 169.954 114.097 170.027C114.17 170.095 114.207 170.201 114.207 170.348C114.207 170.495 114.17 170.605 114.097 170.678C114.03 170.745 113.938 170.779 113.822 170.779H113.712ZM115 175.395L115.183 175.212H115.32C115.724 175.212 116.014 175.163 116.191 175.066C116.374 174.962 116.466 174.766 116.466 174.479C116.466 174.369 116.456 174.229 116.438 174.058C116.426 173.887 116.395 173.661 116.346 173.38L116.218 172.62L116.859 172.519L116.969 173.279C117.012 173.579 117.043 173.823 117.061 174.012C117.079 174.202 117.088 174.357 117.088 174.479C117.088 174.992 116.936 175.374 116.63 175.624C116.331 175.875 115.895 176 115.32 176H115V175.395ZM116.951 171.42C116.829 171.42 116.731 171.386 116.658 171.319C116.585 171.246 116.548 171.13 116.548 170.971C116.548 170.812 116.585 170.699 116.658 170.632C116.731 170.559 116.829 170.522 116.951 170.522H117.052C117.174 170.522 117.272 170.559 117.345 170.632C117.418 170.699 117.455 170.812 117.455 170.971C117.455 171.13 117.418 171.246 117.345 171.319C117.272 171.386 117.174 171.42 117.052 171.42H116.951ZM115.769 171.42C115.647 171.42 115.549 171.386 115.476 171.319C115.403 171.246 115.366 171.13 115.366 170.971C115.366 170.812 115.403 170.699 115.476 170.632C115.549 170.559 115.647 170.522 115.769 170.522H115.87C115.992 170.522 116.09 170.559 116.163 170.632C116.237 170.699 116.273 170.812 116.273 170.971C116.273 171.13 116.237 171.246 116.163 171.319C116.09 171.386 115.992 171.42 115.87 171.42H115.769Z" fill="#ADADAD"/>
<defs>
<clipPath id="clip0_369_7">
<rect x="31" width="202" height="412" rx="25" fill="white"/>
</clipPath>
</defs>
</svg>
