<svg width="202" height="412" viewBox="0 0 202 412" fill="none" xmlns="http://www.w3.org/2000/svg">
<g clip-path="url(#clip0_369_8)">
<rect width="202" height="412" rx="22" fill="#F4F4F4"/>
<rect x="29" y="173" width="143" height="65" rx="11.5057" fill="#E6E5E5"/>
<path d="M136.405 186.864H143.734C146.5 186.864 149.153 187.963 151.108 189.919C153.064 191.875 154.163 194.527 154.163 197.293V204.622C154.163 207.388 153.064 210.04 151.108 211.996C149.153 213.952 146.5 215.051 143.734 215.051H136.405C133.639 215.051 130.987 213.952 129.031 211.996C127.075 210.04 125.977 207.388 125.977 204.622V197.293C125.977 194.527 127.075 191.875 129.031 189.919C130.987 187.963 133.639 186.864 136.405 186.864Z" fill="#D0D0D0"/>
<path d="M136.405 189.682C134.387 189.683 132.452 190.486 131.025 191.913C129.598 193.34 128.795 195.275 128.794 197.293V204.622C128.796 206.64 129.598 208.574 131.025 210.001C132.453 211.428 134.387 212.23 136.405 212.232H143.734C145.752 212.23 147.686 211.427 149.113 210.001C150.54 208.574 151.342 206.639 151.344 204.622V197.293C151.343 195.275 150.54 193.34 149.114 191.913C147.687 190.486 145.752 189.684 143.734 189.682H136.405ZM136.405 186.864H143.734C146.5 186.864 149.153 187.963 151.108 189.919C153.064 191.875 154.163 194.527 154.163 197.293V204.622C154.163 207.388 153.064 210.04 151.108 211.996C149.153 213.952 146.5 215.051 143.734 215.051H136.405C133.639 215.051 130.987 213.952 129.031 211.996C127.075 210.04 125.977 207.388 125.977 204.622V197.293C125.977 194.527 127.075 191.875 129.031 189.919C130.987 187.963 133.639 186.864 136.405 186.864Z" fill="#D0D0D0"/>
<path d="M139.593 209.959C133.665 208.912 131.584 201.602 131.493 201.268L134.211 200.519C134.229 200.586 136.129 207.187 140.942 207.265C141.817 207.263 142.683 207.079 143.483 206.724C150.558 203.741 152.748 189.654 152.769 189.512L155.558 189.929C155.462 190.572 153.112 205.724 144.578 209.321C143.417 209.828 142.163 210.088 140.897 210.082C140.46 210.076 140.024 210.034 139.593 209.959Z" fill="#BFBEBE"/>
<rect x="45" y="190" width="44.3793" height="10.6839" rx="4.1092" fill="#D0D0D0"/>
<rect x="44.6172" y="204.23" width="73.9655" height="4.1092" rx="2.0546" fill="#D0D0D0"/>
<path d="M46.6543 228.093C46.11 228.093 45.6512 228.065 45.278 228.008C44.9099 227.951 44.6118 227.86 44.3837 227.736C44.1556 227.611 43.9897 227.448 43.8861 227.246C43.7876 227.038 43.7383 226.787 43.7383 226.491C43.7383 226.284 43.7642 226.072 43.8161 225.854C43.8731 225.636 43.9586 225.395 44.0727 225.131L44.5548 225.278C44.3423 225.719 44.236 226.097 44.236 226.414C44.236 226.751 44.3863 226.999 44.687 227.16C44.9877 227.316 45.462 227.393 46.11 227.393H47.1986C47.5718 227.393 47.8803 227.383 48.1239 227.362C48.3676 227.342 48.5594 227.305 48.6994 227.254C48.8393 227.196 48.9352 227.121 48.9871 227.028C49.0441 226.935 49.0726 226.815 49.0726 226.67V225.442H49.6169V226.67C49.6169 227.111 49.8372 227.331 50.2779 227.331H50.55V227.844L50.3945 228C49.6791 228 49.2592 227.736 49.1348 227.207H49.0959C49.0648 227.383 49.0052 227.528 48.9171 227.642C48.829 227.756 48.6916 227.847 48.505 227.914C48.3235 227.982 48.0825 228.029 47.7818 228.054C47.4863 228.08 47.1105 228.093 46.6543 228.093ZM47.0897 225.131C46.9861 225.131 46.9031 225.102 46.8409 225.045C46.7787 224.983 46.7476 224.884 46.7476 224.75C46.7476 224.615 46.7787 224.519 46.8409 224.462C46.9031 224.4 46.9861 224.369 47.0897 224.369H47.1753C47.279 224.369 47.3619 224.4 47.4241 224.462C47.4863 224.519 47.5174 224.615 47.5174 224.75C47.5174 224.884 47.4863 224.983 47.4241 225.045C47.3619 225.102 47.279 225.131 47.1753 225.131H47.0897ZM46.0866 225.131C45.983 225.131 45.9 225.102 45.8378 225.045C45.7756 224.983 45.7445 224.884 45.7445 224.75C45.7445 224.615 45.7756 224.519 45.8378 224.462C45.9 224.4 45.983 224.369 46.0866 224.369H46.1722C46.2759 224.369 46.3588 224.4 46.421 224.462C46.4832 224.519 46.5143 224.615 46.5143 224.75C46.5143 224.884 46.4832 224.983 46.421 225.045C46.3588 225.102 46.2759 225.131 46.1722 225.131H46.0866ZM50.3941 227.487L50.5496 227.331H50.8218C51.2624 227.331 51.4827 227.111 51.4827 226.67V225.442H52.027V226.67C52.027 227.111 52.2473 227.331 52.688 227.331H52.9601V227.844L52.8046 228C52.0892 228 51.6693 227.746 51.5449 227.238H51.506C51.449 227.523 51.3376 227.723 51.1717 227.837C51.0058 227.946 50.7466 228 50.3941 228V227.487ZM52.2136 229.555C52.11 229.555 52.027 229.524 51.9648 229.462C51.9026 229.405 51.8715 229.309 51.8715 229.174C51.8715 229.039 51.9026 228.941 51.9648 228.879C52.027 228.822 52.11 228.793 52.2136 228.793H52.2992C52.4029 228.793 52.4858 228.822 52.548 228.879C52.6102 228.941 52.6413 229.039 52.6413 229.174C52.6413 229.309 52.6102 229.405 52.548 229.462C52.4858 229.524 52.4029 229.555 52.2992 229.555H52.2136ZM51.2105 229.555C51.1069 229.555 51.0239 229.524 50.9617 229.462C50.8995 229.405 50.8684 229.309 50.8684 229.174C50.8684 229.039 50.8995 228.941 50.9617 228.879C51.0239 228.822 51.1069 228.793 51.2105 228.793H51.2961C51.3998 228.793 51.4827 228.822 51.5449 228.879C51.6071 228.941 51.6382 229.039 51.6382 229.174C51.6382 229.309 51.6071 229.405 51.5449 229.462C51.4827 229.524 51.3998 229.555 51.2961 229.555H51.2105ZM52.8013 227.487L52.9568 227.331H53.2289C53.6696 227.331 53.8899 227.111 53.8899 226.67V225.442H54.4342V226.67C54.4342 227.111 54.6545 227.331 55.0952 227.331H55.3673V227.844L55.2118 228C54.4964 228 54.0765 227.746 53.9521 227.238H53.9132C53.8562 227.523 53.7447 227.723 53.5789 227.837C53.413 227.946 53.1538 228 52.8013 228V227.487ZM54.1154 229.555C54.0117 229.555 53.9288 229.524 53.8666 229.462C53.8044 229.405 53.7733 229.309 53.7733 229.174C53.7733 229.039 53.8044 228.941 53.8666 228.879C53.9288 228.822 54.0117 228.793 54.1154 228.793H54.2009C54.3046 228.793 54.3876 228.822 54.4498 228.879C54.512 228.941 54.5431 229.039 54.5431 229.174C54.5431 229.309 54.512 229.405 54.4498 229.462C54.3876 229.524 54.3046 229.555 54.2009 229.555H54.1154ZM55.2085 227.487L55.364 227.331H55.6361C56.0768 227.331 56.2971 227.111 56.2971 226.67V225.442H56.8414V226.67C56.8414 227.111 57.0617 227.331 57.5024 227.331H57.7745V227.844L57.619 228C56.9036 228 56.4837 227.746 56.3593 227.238H56.3204C56.2634 227.523 56.1519 227.723 55.9861 227.837C55.8202 227.946 55.561 228 55.2085 228V227.487ZM57.028 224.509C56.9243 224.509 56.8414 224.48 56.7792 224.423C56.717 224.361 56.6859 224.262 56.6859 224.128C56.6859 223.993 56.717 223.897 56.7792 223.84C56.8414 223.778 56.9243 223.747 57.028 223.747H57.1136C57.2172 223.747 57.3002 223.778 57.3624 223.84C57.4246 223.897 57.4557 223.993 57.4557 224.128C57.4557 224.262 57.4246 224.361 57.3624 224.423C57.3002 224.48 57.2172 224.509 57.1136 224.509H57.028ZM56.0249 224.509C55.9213 224.509 55.8383 224.48 55.7761 224.423C55.7139 224.361 55.6828 224.262 55.6828 224.128C55.6828 223.993 55.7139 223.897 55.7761 223.84C55.8383 223.778 55.9213 223.747 56.0249 223.747H56.1105C56.2141 223.747 56.2971 223.778 56.3593 223.84C56.4215 223.897 56.4526 223.993 56.4526 224.128C56.4526 224.262 56.4215 224.361 56.3593 224.423C56.2971 224.48 56.2141 224.509 56.1105 224.509H56.0249ZM56.5226 223.568C56.4241 223.568 56.3437 223.539 56.2815 223.482C56.2245 223.42 56.196 223.327 56.196 223.202C56.196 223.078 56.2245 222.987 56.2815 222.93C56.3437 222.868 56.4241 222.837 56.5226 222.837H56.6159C56.7144 222.837 56.7922 222.868 56.8492 222.93C56.9114 222.987 56.9425 223.078 56.9425 223.202C56.9425 223.327 56.9114 223.42 56.8492 223.482C56.7922 223.539 56.7144 223.568 56.6159 223.568H56.5226ZM57.6157 227.487L57.7712 227.331H57.8878C58.23 227.331 58.4762 227.29 58.6265 227.207C58.782 227.119 58.8598 226.953 58.8598 226.709C58.8598 226.616 58.852 226.497 58.8365 226.352C58.8261 226.206 58.8002 226.015 58.7587 225.776L58.6498 225.131L59.1942 225.045L59.2875 225.691C59.3238 225.945 59.3497 226.152 59.3652 226.313C59.3808 226.473 59.3886 226.606 59.3886 226.709C59.3886 227.145 59.259 227.469 58.9998 227.681C58.7458 227.894 58.3751 228 57.8878 228H57.6157V227.487ZM59.2719 224.112C59.1682 224.112 59.0853 224.084 59.0231 224.027C58.9609 223.964 58.9298 223.866 58.9298 223.731C58.9298 223.596 58.9609 223.5 59.0231 223.443C59.0853 223.381 59.1682 223.35 59.2719 223.35H59.3575C59.4611 223.35 59.5441 223.381 59.6063 223.443C59.6685 223.5 59.6996 223.596 59.6996 223.731C59.6996 223.866 59.6685 223.964 59.6063 224.027C59.5441 224.084 59.4611 224.112 59.3575 224.112H59.2719ZM58.2688 224.112C58.1652 224.112 58.0822 224.084 58.02 224.027C57.9578 223.964 57.9267 223.866 57.9267 223.731C57.9267 223.596 57.9578 223.5 58.02 223.443C58.0822 223.381 58.1652 223.35 58.2688 223.35H58.3544C58.458 223.35 58.541 223.381 58.6032 223.443C58.6654 223.5 58.6965 223.596 58.6965 223.731C58.6965 223.866 58.6654 223.964 58.6032 224.027C58.541 224.084 58.458 224.112 58.3544 224.112H58.2688Z" fill="#ADADAD"/>
<path d="M82.3202 227.401H82.7556L82.7712 227.37C82.6986 227.266 82.6416 227.155 82.6001 227.036C82.5638 226.911 82.5457 226.782 82.5457 226.647C82.5457 226.481 82.5742 226.328 82.6312 226.188C82.6882 226.043 82.7686 225.919 82.8723 225.815C82.9759 225.711 83.0978 225.631 83.2377 225.574C83.3829 225.512 83.5384 225.481 83.7043 225.481C83.9376 225.481 84.1345 225.525 84.2952 225.613C84.4611 225.696 84.6037 225.812 84.7229 225.963L84.3108 226.429C84.2279 226.31 84.1268 226.232 84.0075 226.196C83.8935 226.155 83.7743 226.134 83.6498 226.134C83.4684 226.134 83.3155 226.183 83.1911 226.282C83.0718 226.38 83.0122 226.515 83.0122 226.686C83.0122 226.898 83.0952 227.064 83.261 227.184C83.4269 227.303 83.6498 227.362 83.9298 227.362H84.8707V228H82.3202V227.401ZM87.0378 228C86.7889 228 86.5764 227.979 86.4001 227.938C86.2291 227.896 86.0891 227.829 85.9802 227.736C85.8766 227.637 85.8014 227.51 85.7547 227.355C85.7081 227.199 85.6848 227.01 85.6848 226.787V222.246H86.2602V226.787C86.2602 226.984 86.3146 227.124 86.4235 227.207C86.5323 227.29 86.7008 227.331 86.9289 227.331H87.2011V227.844L87.0455 228H87.0378ZM87.0419 227.487L87.1974 227.331H88.636L88.6437 227.3L87.5473 225.947V225.278C87.7754 225.159 88.0217 225.068 88.286 225.006C88.5556 224.939 88.8174 224.905 89.0714 224.905C89.5432 224.905 89.9086 225.001 90.1678 225.193C90.4322 225.385 90.5644 225.652 90.5644 225.994C90.5644 226.129 90.5462 226.248 90.51 226.352C90.4789 226.45 90.4244 226.548 90.3467 226.647C90.2689 226.745 90.1678 226.847 90.0434 226.95C89.919 227.054 89.7687 227.173 89.5924 227.308L89.6002 227.331H90.9143V227.844L90.7588 228H90.2534C90.046 228 89.8438 227.971 89.6468 227.914C89.455 227.852 89.2762 227.762 89.1103 227.642C88.9444 227.762 88.763 227.852 88.566 227.914C88.3742 227.971 88.1746 228 87.9672 228H87.0419V227.487ZM88.0683 225.761L89.1647 227.067L89.2503 226.997C89.3747 226.893 89.4835 226.803 89.5769 226.725C89.6753 226.647 89.7583 226.574 89.8257 226.507C89.8931 226.434 89.9449 226.367 89.9812 226.305C90.0175 226.237 90.0356 226.165 90.0356 226.087C90.0356 225.921 89.9501 225.794 89.779 225.706C89.608 225.618 89.3669 225.574 89.0559 225.574C88.9055 225.574 88.7474 225.587 88.5815 225.613C88.4208 225.634 88.2498 225.672 88.0683 225.729V225.761ZM89.0248 223.972C88.9211 223.972 88.8381 223.944 88.7759 223.887C88.7137 223.824 88.6826 223.726 88.6826 223.591C88.6826 223.456 88.7137 223.36 88.7759 223.303C88.8381 223.241 88.9211 223.21 89.0248 223.21H89.1103C89.214 223.21 89.2969 223.241 89.3591 223.303C89.4213 223.36 89.4524 223.456 89.4524 223.591C89.4524 223.726 89.4213 223.824 89.3591 223.887C89.2969 223.944 89.214 223.972 89.1103 223.972H89.0248ZM90.7552 227.487L90.9107 227.331H91.1362C91.3851 227.331 91.5639 227.274 91.6728 227.16C91.7868 227.046 91.8438 226.865 91.8438 226.616V222.246H92.4193V226.616C92.4193 227.093 92.3156 227.443 92.1082 227.666C91.906 227.889 91.582 228 91.1362 228H90.7552V227.487ZM93.5822 222.246H94.1576V228H93.5822V222.246ZM93.0845 229.547H93.3644L93.3722 229.516C93.3308 229.464 93.2971 229.402 93.2711 229.33C93.2452 229.262 93.2323 229.192 93.2323 229.12C93.2323 228.918 93.2997 228.749 93.4344 228.614C93.5692 228.48 93.7403 228.412 93.9476 228.412C94.0669 228.412 94.1887 228.441 94.3131 228.498C94.4375 228.56 94.5308 228.64 94.593 228.739L94.3053 229.089C94.2017 228.969 94.0824 228.91 93.9476 228.91C93.8543 228.91 93.7766 228.933 93.7144 228.98C93.6522 229.032 93.6211 229.094 93.6211 229.166C93.6211 229.275 93.6703 229.361 93.7688 229.423C93.8673 229.485 94.0047 229.516 94.1809 229.516H94.6786V230.014H93.0845V229.547Z" fill="#ADADAD"/>
<rect x="64" y="402" width="74" height="4" rx="2" fill="#D9D9D9"/>
<rect width="202" height="44" fill="#E4E4E4"/>
<rect x="62" y="15" width="123" height="18" rx="7.5" fill="#D9D9D9"/>
<rect x="39" y="18" width="11" height="11" rx="3" fill="#D9D9D9"/>
<path d="M20.5 19.625C20.0531 19.625 19.6875 19.9906 19.6875 20.4375C19.6875 20.8844 20.0531 21.25 20.5 21.25C20.9469 21.25 21.3125 20.8844 21.3125 20.4375C21.3125 19.9906 20.9469 19.625 20.5 19.625ZM20.5 27.75C20.0531 27.75 19.6875 28.1156 19.6875 28.5625C19.6875 29.0094 20.0531 29.375 20.5 29.375C20.9469 29.375 21.3125 29.0094 21.3125 28.5625C21.3125 28.1156 20.9469 27.75 20.5 27.75ZM20.5 23.6875C20.0531 23.6875 19.6875 24.0531 19.6875 24.5C19.6875 24.9469 20.0531 25.3125 20.5 25.3125C20.9469 25.3125 21.3125 24.9469 21.3125 24.5C21.3125 24.0531 20.9469 23.6875 20.5 23.6875Z" fill="#BEBEBE"/>
<path d="M49.9991 240.828L44.6352 246.192L43.221 244.778L50.9991 237L58.7773 244.778L57.3631 246.192L51.9991 240.828V253H49.9991V240.828Z" fill="#FF6584"/>
</g>
<defs>
<clipPath id="clip0_369_8">
<rect width="202" height="412" rx="25" fill="white"/>
</clipPath>
</defs>
</svg>
