<svg width="177" height="71" viewBox="0 0 177 71" fill="none" xmlns="http://www.w3.org/2000/svg">
<path d="M3.12663 25.0081C2.57879 24.9381 2.07799 25.3255 2.00805 25.8734L0.868363 34.8009C0.798426 35.3488 1.18584 35.8496 1.73368 35.9195C2.28152 35.9894 2.78233 35.602 2.85226 35.0542L3.86532 27.1186L11.8009 28.1316C12.3488 28.2016 12.8496 27.8142 12.9195 27.2663C12.9894 26.7185 12.602 26.2177 12.0542 26.1477L3.12663 25.0081ZM175.5 1C174.523 0.786026 174.523 0.785908 174.523 0.785989C174.523 0.786282 174.523 0.786561 174.523 0.787145C174.523 0.788313 174.522 0.790272 174.522 0.793016C174.52 0.798503 174.518 0.807129 174.516 0.818833C174.511 0.842242 174.503 0.877965 174.492 0.925528C174.47 1.02066 174.436 1.16314 174.391 1.34919C174.301 1.72133 174.164 2.26761 173.977 2.95786C173.604 4.33871 173.034 6.29373 172.249 8.58189C170.677 13.166 168.255 19.0516 164.847 24.3328C161.431 29.6266 157.089 34.2121 151.716 36.3523C146.402 38.4691 139.912 38.2595 132.005 33.6368L130.995 35.3634C139.338 40.2406 146.473 40.5935 152.456 38.2103C158.38 35.8505 163.007 30.8734 166.528 25.4173C170.057 19.9484 172.541 13.8965 174.141 9.23062C174.943 6.89378 175.525 4.89567 175.908 3.47964C176.099 2.77145 176.241 2.20836 176.335 1.82073C176.382 1.6269 176.417 1.4769 176.44 1.37452C176.452 1.32333 176.461 1.28404 176.467 1.25713C176.47 1.24367 176.473 1.2333 176.474 1.22609C176.475 1.22249 176.476 1.21967 176.476 1.21765C176.476 1.21664 176.476 1.21572 176.477 1.21521C176.477 1.21449 176.477 1.21397 175.5 1ZM132.005 33.6368C123.747 28.8092 117.361 27.7777 111.998 29.3613C106.682 30.9313 102.612 35.0093 98.8382 39.8204C96.9459 42.233 95.0916 44.8802 93.1874 47.5354C91.2755 50.2013 89.303 52.8903 87.1433 55.4396C82.8259 60.5356 77.8003 65.0241 71.1433 67.5658L71.8567 69.4342C78.9497 66.726 84.2366 61.9645 88.6692 56.7324C90.8845 54.1176 92.8964 51.373 94.8126 48.701C96.7365 46.0183 98.5541 43.4233 100.412 41.0547C104.138 36.3033 107.881 32.6625 112.564 31.2794C117.202 29.91 123.003 30.6909 130.995 35.3634L132.005 33.6368ZM71.1433 67.5658C64.6232 70.0553 57.203 68.8179 49.6079 65.3781C42.0229 61.943 34.404 56.3725 27.5948 50.4339C20.7929 44.5016 14.8391 38.2376 10.5831 33.4526C8.45618 31.0612 6.75562 29.0419 5.58783 27.6217C5.00398 26.9117 4.55344 26.3516 4.2495 25.9698C4.09754 25.7789 3.98223 25.6326 3.90525 25.5345C3.86676 25.4854 3.83785 25.4484 3.81873 25.4239C3.80917 25.4116 3.80206 25.4024 3.79742 25.3965C3.79511 25.3935 3.7934 25.3913 3.79233 25.3899C3.79179 25.3892 3.79144 25.3888 3.79117 25.3884C3.79099 25.3882 3.79096 25.3881 3 26C2.20904 26.6119 2.20933 26.6122 2.20976 26.6128C2.21012 26.6133 2.21071 26.614 2.21142 26.6149C2.21284 26.6168 2.21488 26.6194 2.21754 26.6228C2.22286 26.6297 2.23066 26.6397 2.24091 26.6529C2.26141 26.6792 2.29173 26.718 2.33166 26.7689C2.4115 26.8707 2.52978 27.0208 2.68482 27.2155C2.9949 27.605 3.45207 28.1733 4.04303 28.892C5.22485 30.3292 6.94226 32.3685 9.08873 34.7818C13.3797 39.6062 19.3946 45.9359 26.2802 51.9411C33.1585 57.94 40.9458 63.6508 48.7828 67.2C56.6095 70.7447 64.6268 72.1947 71.8567 69.4342L71.1433 67.5658Z" fill="#3F3D56"/>
</svg>
