<svg width="177" height="71" viewBox="0 0 177 71" fill="none" xmlns="http://www.w3.org/2000/svg">
<path d="M174.21 25.0082C174.758 24.9382 175.259 25.3256 175.329 25.8735L176.469 34.801C176.539 35.3489 176.151 35.8497 175.603 35.9196C175.055 35.9895 174.555 35.6021 174.485 35.0543L173.472 27.1187L165.536 28.1317C164.988 28.2017 164.487 27.8143 164.418 27.2664C164.348 26.7186 164.735 26.2178 165.283 26.1478L174.21 25.0082ZM1.83701 1.00015C2.81401 0.786173 2.81401 0.786055 2.81401 0.786136C2.81401 0.786429 2.81401 0.786708 2.81401 0.787292C2.81401 0.78846 2.815 0.790419 2.815 0.793163C2.817 0.79865 2.819 0.807276 2.821 0.81898C2.826 0.842389 2.834 0.878112 2.845 0.925675C2.867 1.02081 2.901 1.16329 2.946 1.34934C3.036 1.72148 3.173 2.26776 3.36 2.95801C3.733 4.33886 4.30301 6.29388 5.08801 8.58204C6.66001 13.1661 9.08201 19.0517 12.49 24.3329C15.906 29.6267 20.248 34.2122 25.621 36.3524C30.935 38.4692 37.425 38.2596 45.332 33.6369L46.342 35.3635C37.999 40.2407 30.864 40.5936 24.881 38.2104C18.957 35.8506 14.33 30.8735 10.809 25.4174C7.28001 19.9485 4.796 13.8966 3.196 9.23077C2.394 6.89393 1.812 4.89582 1.429 3.47979C1.238 2.7716 1.096 2.20851 1.002 1.82088C0.954999 1.62705 0.920003 1.47705 0.897003 1.37467C0.885003 1.32348 0.87601 1.28419 0.87001 1.25728C0.86701 1.24382 0.864007 1.23345 0.863007 1.22624C0.862007 1.22264 0.861008 1.21982 0.861008 1.2178C0.861008 1.21679 0.861001 1.21587 0.860001 1.21536C0.860001 1.21464 0.860006 1.21412 1.83701 1.00015ZM45.332 33.6369C53.59 28.8093 59.976 27.7778 65.339 29.3614C70.655 30.9314 74.725 35.0094 78.4988 39.8205C80.3911 42.2331 82.2454 44.8803 84.1496 47.5355C86.0615 50.2014 88.034 52.8904 90.1937 55.4397C94.5111 60.5357 99.5367 65.0242 106.194 67.5659L105.48 69.4343C98.3873 66.7261 93.1004 61.9646 88.6678 56.7325C86.4525 54.1177 84.4406 51.3731 82.5244 48.7011C80.6005 46.0184 78.7829 43.4234 76.925 41.0548C73.199 36.3034 69.456 32.6626 64.773 31.2795C60.135 29.9101 54.334 30.691 46.342 35.3635L45.332 33.6369ZM106.194 67.5659C112.714 70.0554 120.134 68.818 127.729 65.3782C135.314 61.9431 142.933 56.3726 149.742 50.434C156.544 44.5017 162.498 38.2377 166.754 33.4527C168.881 31.0613 170.581 29.042 171.749 27.6218C172.333 26.9118 172.784 26.3517 173.088 25.9699C173.239 25.779 173.355 25.6327 173.432 25.5346C173.47 25.4855 173.499 25.4485 173.518 25.424C173.528 25.4117 173.535 25.4025 173.54 25.3966C173.542 25.3936 173.544 25.3914 173.545 25.39C173.545 25.3893 173.546 25.3889 173.546 25.3885C173.546 25.3883 173.546 25.3882 174.337 26.0001C175.128 26.612 175.128 26.6123 175.127 26.6129C175.127 26.6134 175.126 26.6141 175.126 26.615C175.124 26.6169 175.122 26.6195 175.119 26.6229C175.114 26.6298 175.106 26.6398 175.096 26.653C175.076 26.6793 175.045 26.7181 175.005 26.769C174.926 26.8708 174.807 27.0209 174.652 27.2156C174.342 27.6051 173.885 28.1734 173.294 28.8921C172.112 30.3293 170.395 32.3686 168.248 34.7819C163.957 39.6063 157.942 45.936 151.057 51.9412C144.179 57.9401 136.391 63.6509 128.554 67.2001C120.728 70.7448 112.71 72.1948 105.48 69.4343L106.194 67.5659Z" fill="#3F3D56"/>
</svg>
