<svg width="292" height="187" viewBox="0 0 292 187" fill="none" xmlns="http://www.w3.org/2000/svg">
<rect width="292" height="186.276" rx="23.4943" fill="#F4F4F4"/>
<path d="M219.319 28.3105H234.284C239.931 28.3105 245.348 30.5541 249.342 34.5478C253.335 38.5414 255.579 43.9579 255.579 49.6058V64.5707C255.579 70.2186 253.335 75.6351 249.342 79.6287C245.348 83.6224 239.931 85.866 234.284 85.866H219.319C213.671 85.866 208.254 83.6224 204.261 79.6287C200.267 75.6351 198.023 70.2186 198.023 64.5707V49.6058C198.023 43.9579 200.267 38.5414 204.261 34.5478C208.254 30.5541 213.671 28.3105 219.319 28.3105Z" fill="#E4E4E4"/>
<path d="M219.319 34.0634C215.198 34.0665 211.246 35.705 208.332 38.6191C205.418 41.5332 203.779 45.4846 203.776 49.6058V64.5707C203.78 68.6913 205.419 72.6419 208.333 75.5553C211.247 78.4687 215.198 80.1068 219.319 80.1099H234.284C238.404 80.1059 242.354 78.4675 245.267 75.5542C248.18 72.6409 249.819 68.6908 249.823 64.5707V49.6058C249.82 45.4852 248.182 41.5342 245.268 38.6202C242.355 35.7062 238.404 34.0674 234.284 34.0634H219.319ZM219.319 28.3105H234.284C239.931 28.3105 245.348 30.5541 249.342 34.5478C253.335 38.5414 255.579 43.9579 255.579 49.6058V64.5707C255.579 70.2186 253.335 75.6351 249.342 79.6287C245.348 83.6224 239.931 85.866 234.284 85.866H219.319C213.671 85.866 208.254 83.6224 204.261 79.6287C200.267 75.6351 198.023 70.2186 198.023 64.5707V49.6058C198.023 43.9579 200.267 38.5414 204.261 34.5478C208.254 30.5541 213.671 28.3105 219.319 28.3105Z" fill="#E4E4E4"/>
<path d="M225.825 75.4687C213.718 73.3301 209.47 58.4038 209.285 57.7219L214.834 56.1927C214.871 56.3292 218.75 69.8093 228.579 69.9678C230.366 69.9641 232.133 69.5882 233.767 68.864C248.215 62.7712 252.687 34.0075 252.729 33.7175L258.423 34.5676C258.228 35.8814 253.43 66.822 236.003 74.1653C233.633 75.2016 231.072 75.7312 228.486 75.7201C227.594 75.7069 226.704 75.6228 225.825 75.4687Z" fill="#D2D2D2"/>
<rect x="92.3008" y="35.2412" width="90.6207" height="21.8161" rx="8.3908" fill="#E4E4E4"/>
<rect x="31.8867" y="63.7705" width="151.034" height="8.3908" rx="4.1954" fill="#E4E4E4"/>
<rect x="32.7258" y="136.77" width="63.7701" height="35.2414" rx="12.5862" stroke="#D9D9D9" stroke-width="1.67816"/>
<rect x="107.402" y="135.931" width="65.4483" height="36.9195" rx="13.4253" fill="#D9D9D9"/>
<path d="M129.018 159.834C127.907 159.834 126.97 159.776 126.208 159.659C125.456 159.543 124.848 159.358 124.382 159.104C123.916 158.85 123.578 158.516 123.366 158.103C123.165 157.68 123.064 157.167 123.064 156.563C123.064 156.14 123.117 155.706 123.223 155.261C123.339 154.817 123.514 154.324 123.747 153.785L124.731 154.086C124.297 154.986 124.08 155.759 124.08 156.404C124.08 157.092 124.387 157.601 125.001 157.929C125.615 158.246 126.584 158.405 127.907 158.405H130.13C130.892 158.405 131.522 158.384 132.019 158.342C132.517 158.299 132.909 158.225 133.194 158.119C133.48 158.003 133.676 157.849 133.782 157.659C133.898 157.468 133.957 157.225 133.957 156.928V154.42H135.068V156.928C135.068 157.828 135.518 158.278 136.418 158.278H136.973V159.326L136.656 159.644C135.195 159.644 134.338 159.104 134.084 158.024H134.004C133.941 158.384 133.819 158.68 133.639 158.913C133.459 159.146 133.179 159.331 132.797 159.469C132.427 159.607 131.935 159.702 131.321 159.755C130.717 159.808 129.95 159.834 129.018 159.834ZM129.908 153.785C129.696 153.785 129.527 153.726 129.4 153.61C129.273 153.483 129.209 153.282 129.209 153.007C129.209 152.731 129.273 152.535 129.4 152.419C129.527 152.292 129.696 152.228 129.908 152.228H130.082C130.294 152.228 130.463 152.292 130.59 152.419C130.717 152.535 130.781 152.731 130.781 153.007C130.781 153.282 130.717 153.483 130.59 153.61C130.463 153.726 130.294 153.785 130.082 153.785H129.908ZM127.859 153.785C127.648 153.785 127.478 153.726 127.351 153.61C127.224 153.483 127.161 153.282 127.161 153.007C127.161 152.731 127.224 152.535 127.351 152.419C127.478 152.292 127.648 152.228 127.859 152.228H128.034C128.246 152.228 128.415 152.292 128.542 152.419C128.669 152.535 128.733 152.731 128.733 153.007C128.733 153.282 128.669 153.483 128.542 153.61C128.415 153.726 128.246 153.785 128.034 153.785H127.859ZM136.655 158.596L136.973 158.278H137.528C138.428 158.278 138.878 157.828 138.878 156.928V154.42H139.989V156.928C139.989 157.828 140.439 158.278 141.339 158.278H141.895V159.326L141.577 159.644C140.116 159.644 139.259 159.125 139.005 158.088H138.926C138.809 158.67 138.582 159.077 138.243 159.31C137.904 159.532 137.375 159.644 136.655 159.644V158.596ZM140.37 162.819C140.159 162.819 139.989 162.756 139.862 162.629C139.735 162.512 139.672 162.316 139.672 162.041C139.672 161.766 139.735 161.565 139.862 161.438C139.989 161.321 140.159 161.263 140.37 161.263H140.545C140.757 161.263 140.926 161.321 141.053 161.438C141.18 161.565 141.244 161.766 141.244 162.041C141.244 162.316 141.18 162.512 141.053 162.629C140.926 162.756 140.757 162.819 140.545 162.819H140.37ZM138.322 162.819C138.11 162.819 137.941 162.756 137.814 162.629C137.687 162.512 137.624 162.316 137.624 162.041C137.624 161.766 137.687 161.565 137.814 161.438C137.941 161.321 138.11 161.263 138.322 161.263H138.497C138.709 161.263 138.878 161.321 139.005 161.438C139.132 161.565 139.195 161.766 139.195 162.041C139.195 162.316 139.132 162.512 139.005 162.629C138.878 162.756 138.709 162.819 138.497 162.819H138.322ZM141.57 158.596L141.888 158.278H142.444C143.343 158.278 143.793 157.828 143.793 156.928V154.42H144.905V156.928C144.905 157.828 145.355 158.278 146.254 158.278H146.81V159.326L146.493 159.644C145.032 159.644 144.174 159.125 143.92 158.088H143.841C143.724 158.67 143.497 159.077 143.158 159.31C142.819 159.532 142.29 159.644 141.57 159.644V158.596ZM144.254 162.819C144.042 162.819 143.873 162.756 143.746 162.629C143.619 162.512 143.555 162.316 143.555 162.041C143.555 161.766 143.619 161.565 143.746 161.438C143.873 161.321 144.042 161.263 144.254 161.263H144.428C144.64 161.263 144.809 161.321 144.937 161.438C145.064 161.565 145.127 161.766 145.127 162.041C145.127 162.316 145.064 162.512 144.937 162.629C144.809 162.756 144.64 162.819 144.428 162.819H144.254ZM146.486 158.596L146.803 158.278H147.359C148.259 158.278 148.709 157.828 148.709 156.928V154.42H149.82V156.928C149.82 157.828 150.27 158.278 151.17 158.278H151.726V159.326L151.408 159.644C149.947 159.644 149.09 159.125 148.836 158.088H148.756C148.64 158.67 148.412 159.077 148.074 159.31C147.735 159.532 147.206 159.644 146.486 159.644V158.596ZM150.201 152.514C149.989 152.514 149.82 152.456 149.693 152.34C149.566 152.213 149.503 152.011 149.503 151.736C149.503 151.461 149.566 151.265 149.693 151.149C149.82 151.022 149.989 150.958 150.201 150.958H150.376C150.588 150.958 150.757 151.022 150.884 151.149C151.011 151.265 151.075 151.461 151.075 151.736C151.075 152.011 151.011 152.213 150.884 152.34C150.757 152.456 150.588 152.514 150.376 152.514H150.201ZM148.153 152.514C147.941 152.514 147.772 152.456 147.645 152.34C147.518 152.213 147.454 152.011 147.454 151.736C147.454 151.461 147.518 151.265 147.645 151.149C147.772 151.022 147.941 150.958 148.153 150.958H148.328C148.539 150.958 148.709 151.022 148.836 151.149C148.963 151.265 149.026 151.461 149.026 151.736C149.026 152.011 148.963 152.213 148.836 152.34C148.709 152.456 148.539 152.514 148.328 152.514H148.153ZM149.169 150.593C148.968 150.593 148.804 150.535 148.677 150.418C148.56 150.291 148.502 150.101 148.502 149.847C148.502 149.593 148.56 149.407 148.677 149.291C148.804 149.164 148.968 149.101 149.169 149.101H149.36C149.561 149.101 149.72 149.164 149.836 149.291C149.963 149.407 150.027 149.593 150.027 149.847C150.027 150.101 149.963 150.291 149.836 150.418C149.72 150.535 149.561 150.593 149.36 150.593H149.169ZM151.401 158.596L151.719 158.278H151.957C152.655 158.278 153.158 158.193 153.465 158.024C153.783 157.844 153.942 157.505 153.942 157.008C153.942 156.817 153.926 156.574 153.894 156.277C153.873 155.981 153.82 155.589 153.735 155.102L153.513 153.785L154.624 153.61L154.815 154.928C154.889 155.446 154.942 155.87 154.974 156.198C155.005 156.526 155.021 156.796 155.021 157.008C155.021 157.897 154.757 158.559 154.227 158.993C153.709 159.427 152.952 159.644 151.957 159.644H151.401V158.596ZM154.783 151.705C154.571 151.705 154.402 151.646 154.275 151.53C154.148 151.403 154.085 151.202 154.085 150.926C154.085 150.651 154.148 150.455 154.275 150.339C154.402 150.212 154.571 150.148 154.783 150.148H154.958C155.17 150.148 155.339 150.212 155.466 150.339C155.593 150.455 155.656 150.651 155.656 150.926C155.656 151.202 155.593 151.403 155.466 151.53C155.339 151.646 155.17 151.705 154.958 151.705H154.783ZM152.735 151.705C152.523 151.705 152.354 151.646 152.227 151.53C152.1 151.403 152.036 151.202 152.036 150.926C152.036 150.651 152.1 150.455 152.227 150.339C152.354 150.212 152.523 150.148 152.735 150.148H152.91C153.121 150.148 153.291 150.212 153.418 150.339C153.545 150.455 153.608 150.651 153.608 150.926C153.608 151.202 153.545 151.403 153.418 151.53C153.291 151.646 153.121 151.705 152.91 151.705H152.735Z" fill="#ADADAD"/>
<path d="M53.1829 158.421H54.072L54.1038 158.357C53.9556 158.146 53.8391 157.918 53.7545 157.675C53.6804 157.421 53.6433 157.156 53.6433 156.881C53.6433 156.542 53.7015 156.23 53.818 155.944C53.9344 155.648 54.0985 155.394 54.3102 155.182C54.5219 154.97 54.7707 154.806 55.0565 154.69C55.3529 154.563 55.6704 154.499 56.0092 154.499C56.4855 154.499 56.8877 154.589 57.2159 154.769C57.5546 154.938 57.8457 155.177 58.0892 155.483L57.2476 156.436C57.0783 156.193 56.8719 156.034 56.6284 155.96C56.3955 155.875 56.1521 155.833 55.898 155.833C55.5275 155.833 55.2152 155.933 54.9612 156.134C54.7177 156.336 54.596 156.611 54.596 156.96C54.596 157.394 54.7654 157.733 55.1041 157.976C55.4428 158.22 55.898 158.342 56.4696 158.342H58.3909V159.644H53.1829V158.421ZM62.816 159.644C62.3079 159.644 61.8739 159.601 61.514 159.517C61.1647 159.432 60.8789 159.294 60.6566 159.104C60.4449 158.903 60.2914 158.643 60.1961 158.326C60.1009 158.008 60.0532 157.622 60.0532 157.167V147.894H61.2282V157.167C61.2282 157.569 61.3393 157.855 61.5616 158.024C61.7839 158.193 62.128 158.278 62.5937 158.278H63.1495V159.326L62.8319 159.644H62.816ZM62.8244 158.596L63.142 158.278H66.0795L66.0953 158.215L63.8565 155.452V154.086C64.3223 153.843 64.8251 153.658 65.3649 153.53C65.9154 153.393 66.4499 153.324 66.9686 153.324C67.9319 153.324 68.6782 153.52 69.2074 153.912C69.7473 154.303 70.0172 154.848 70.0172 155.547C70.0172 155.822 69.9802 156.066 69.9061 156.277C69.8426 156.479 69.7314 156.68 69.5726 156.881C69.4139 157.082 69.2074 157.288 68.9534 157.5C68.6993 157.712 68.3924 157.955 68.0325 158.23L68.0483 158.278H70.7317V159.326L70.4142 159.644H69.3821C68.9587 159.644 68.5459 159.585 68.1436 159.469C67.7519 159.342 67.3867 159.157 67.048 158.913C66.7093 159.157 66.3388 159.342 65.9366 159.469C65.5449 159.585 65.1374 159.644 64.7139 159.644H62.8244V158.596ZM64.9204 155.071L67.1592 157.738L67.3338 157.595C67.5879 157.384 67.8102 157.198 68.0007 157.04C68.2018 156.881 68.3712 156.733 68.5088 156.595C68.6464 156.447 68.7523 156.309 68.8264 156.182C68.9005 156.045 68.9375 155.896 68.9375 155.738C68.9375 155.399 68.7629 155.139 68.4135 154.96C68.0642 154.78 67.572 154.69 66.9369 154.69C66.6299 154.69 66.307 154.716 65.9683 154.769C65.6402 154.811 65.2908 154.891 64.9204 155.007V155.071ZM66.8734 151.419C66.6617 151.419 66.4923 151.36 66.3653 151.244C66.2382 151.117 66.1747 150.916 66.1747 150.641C66.1747 150.365 66.2382 150.17 66.3653 150.053C66.4923 149.926 66.6617 149.863 66.8734 149.863H67.048C67.2597 149.863 67.4291 149.926 67.5561 150.053C67.6831 150.17 67.7467 150.365 67.7467 150.641C67.7467 150.916 67.6831 151.117 67.5561 151.244C67.4291 151.36 67.2597 151.419 67.048 151.419H66.8734ZM70.4069 158.596L70.7244 158.278H71.1849C71.693 158.278 72.0582 158.162 72.2805 157.929C72.5133 157.696 72.6298 157.325 72.6298 156.817V147.894H73.8048V156.817C73.8048 157.791 73.5931 158.506 73.1696 158.961C72.7568 159.416 72.0952 159.644 71.1849 159.644H70.4069V158.596ZM76.1794 147.894H77.3544V159.644H76.1794V147.894ZM75.1632 162.803H75.7348L75.7507 162.74C75.666 162.634 75.5972 162.507 75.5443 162.359C75.4914 162.221 75.4649 162.078 75.4649 161.93C75.4649 161.517 75.6025 161.173 75.8777 160.898C76.1529 160.623 76.5023 160.485 76.9257 160.485C77.1691 160.485 77.4179 160.543 77.6719 160.66C77.926 160.787 78.1165 160.951 78.2436 161.152L77.6561 161.866C77.4444 161.623 77.2009 161.501 76.9257 161.501C76.7351 161.501 76.5764 161.549 76.4493 161.644C76.3223 161.75 76.2588 161.877 76.2588 162.025C76.2588 162.248 76.3594 162.422 76.5605 162.549C76.7616 162.676 77.0421 162.74 77.402 162.74H78.4182V163.756H75.1632V162.803Z" fill="#ADADAD"/>
<path d="M143.001 128.172L148.365 122.808L149.779 124.222L142.001 132L134.223 124.222L135.637 122.808L141.001 128.172V116H143.001V128.172Z" fill="#FF6584"/>
</svg>
