<svg width="527" height="63" viewBox="0 0 527 63" fill="none" xmlns="http://www.w3.org/2000/svg">
<rect y="26" width="527" height="37" rx="18.5" fill="#F4F4F4"/>
<path d="M511.031 49.6168L515.314 53.8995L513.899 55.3137L509.617 51.031C508.077 52.263 506.124 53 504 53C499.032 53 495 48.968 495 44C495 39.032 499.032 35 504 35C508.968 35 513 39.032 513 44C513 46.124 512.263 48.0769 511.031 49.6168ZM509.025 48.8748C510.248 47.6146 511 45.8956 511 44C511 40.1325 507.868 37 504 37C500.132 37 497 40.1325 497 44C497 47.8675 500.132 51 504 51C505.896 51 507.615 50.2475 508.875 49.0247L509.025 48.8748Z" fill="#A7A7A7"/>
<path d="M23.125 36.582V38.1654H19.9583L19.9575 46.082H31.0409L31.0417 38.1654H27.875V36.582H31.8333C32.2706 36.582 32.625 36.9365 32.625 37.3737V51.6237C32.625 52.0609 32.2706 52.4154 31.8333 52.4154H19.1667C18.7294 52.4154 18.375 52.0609 18.375 51.6237V37.3737C18.375 36.9365 18.7294 36.582 19.1667 36.582H23.125ZM31.0409 47.6654H19.9575L19.9583 50.832H31.0417L31.0409 47.6654ZM29.4583 48.457V50.0404H27.875V48.457H29.4583ZM26.2917 36.582V40.5404H28.6667L25.5 43.707L22.3333 40.5404H24.7083V36.582H26.2917Z" fill="#A7A7A7"/>
<path d="M27.0009 16.1716L32.3648 10.8076L33.779 12.2218L26.0009 20L18.2227 12.2218L19.6369 10.8076L25.0009 16.1716V4H27.0009V16.1716Z" fill="#FF6584"/>
</svg>
