<svg width="234" height="240" viewBox="0 0 234 240" fill="none" xmlns="http://www.w3.org/2000/svg">
<rect width="13.8069" height="14.1285" rx="6.90343" transform="matrix(0 -1 -1 0 41.2002 27.2825)" fill="#FA7878"/>
<path d="M1.16899 20.5446C1.16899 26.8792 3.17277 31.9012 7.18033 35.6107C11.2536 39.263 16.7065 41.0892 23.5391 41.0892V30.3889C19.9257 30.3889 17.1007 29.5044 15.0641 27.7352C13.0274 25.9661 12.0091 23.5693 12.0091 20.5446C12.0091 17.52 12.9946 15.1231 14.9655 13.354C17.0021 11.5849 19.8271 10.7004 23.4405 10.7004V4.01799e-05C16.5423 4.01799e-05 11.0893 1.85476 7.08178 5.5642C3.13992 9.21658 1.16899 14.2101 1.16899 20.5446Z" fill="#FA7878"/>
<rect width="14.1285" height="13.8069" rx="6.90343" transform="matrix(1 0 0 -1 14.1289 89.3395)" fill="#FA7878"/>
<path d="M21.0232 50.2202C14.541 50.2202 9.40202 52.1783 5.60618 56.0947C1.86873 60.0752 0 65.404 0 72.081H10.9496C10.9496 68.5499 11.8547 65.7892 13.6651 63.7989C15.4754 61.8087 17.9281 60.8135 21.0232 60.8135C24.1182 60.8135 26.5709 61.7766 28.3813 63.7026C30.1916 65.6929 31.0968 68.4536 31.0968 71.9847H42.0463C42.0463 65.2435 40.1484 59.9147 36.3525 55.9984C32.6151 52.1462 27.5053 50.2202 21.0232 50.2202Z" fill="#FA7878"/>
<rect x="40.8789" y="112.277" width="13.8069" height="14.1285" rx="6.90343" transform="rotate(90 40.8789 112.277)" fill="#FA7878"/>
<path d="M0.846724 119.015C0.846724 112.68 2.8505 107.658 6.85806 103.949C10.9313 100.297 16.3842 98.4705 23.2168 98.4705V109.171C19.6034 109.171 16.7784 110.055 14.7418 111.824C12.7052 113.594 11.6868 115.99 11.6868 119.015C11.6868 122.04 12.6723 124.437 14.6432 126.206C16.6799 127.975 19.5049 128.859 23.1182 128.859V139.56C16.22 139.56 10.7671 137.705 6.75952 133.995C2.81766 130.343 0.846724 125.35 0.846724 119.015Z" fill="#FA7878"/>
<rect x="14.1289" y="148.691" width="14.1285" height="13.8069" rx="6.90343" fill="#FA7878"/>
<path d="M21.0232 187.81C14.541 187.81 9.40202 185.852 5.60618 181.935C1.86873 177.955 0 172.626 0 165.949H10.9496C10.9496 169.48 11.8547 172.241 13.6651 174.231C15.4754 176.221 17.9281 177.217 21.0232 177.217C24.1182 177.217 26.5709 176.254 28.3813 174.327C30.1916 172.337 31.0968 169.577 31.0968 166.045H42.0463C42.0463 172.787 40.1484 178.115 36.3525 182.032C32.6151 185.884 27.5053 187.81 21.0232 187.81Z" fill="#FA7878"/>
<rect width="13.8069" height="14.1285" rx="6.90343" transform="matrix(0 1 1 0 0.84668 210.748)" fill="#FA7878"/>
<path d="M40.8779 217.485C40.8779 211.151 38.8741 206.129 34.8665 202.419C30.7933 198.767 25.3404 196.941 18.5078 196.941V207.641C22.1212 207.641 24.9462 208.526 26.9828 210.295C29.0194 212.064 30.0378 214.461 30.0378 217.485C30.0378 220.51 29.0523 222.907 27.0814 224.676C25.0447 226.445 22.2197 227.33 18.6064 227.33V238.03C25.5046 238.03 30.9575 236.175 34.9651 232.466C38.907 228.814 40.8779 223.82 40.8779 217.485Z" fill="#FA7878"/>
<rect width="13.8069" height="14.1285" rx="6.90343" transform="matrix(0 -1 -1 0 89.085 27.2825)" fill="#FA7878"/>
<path d="M49.0518 20.5447C49.0518 26.8793 51.0556 31.9013 55.0631 35.6107C59.1364 39.2631 64.5893 41.0893 71.4219 41.0893V30.389C67.8085 30.389 64.9835 29.5044 62.9469 27.7353C60.9102 25.9662 59.8919 23.5693 59.8919 20.5447C59.8919 17.5201 60.8774 15.1232 62.8483 13.3541C64.885 11.585 67.71 10.7004 71.3233 10.7004V0.000101215C64.4251 0.000101215 58.9722 1.85482 54.9646 5.56427C51.0227 9.21664 49.0518 14.2101 49.0518 20.5447Z" fill="#FA7878"/>
<rect width="13.8069" height="14.1285" rx="6.90343" transform="matrix(0 -1 -1 0 89.085 77.5026)" fill="#FA7878"/>
<path d="M49.0518 70.7648C49.0518 77.0994 51.0556 82.1214 55.0631 85.8308C59.1364 89.4832 64.5893 91.3094 71.4219 91.3094V80.6091C67.8085 80.6091 64.9835 79.7245 62.9469 77.9554C60.9102 76.1863 59.8919 73.7894 59.8919 70.7648C59.8919 67.7402 60.8774 65.3433 62.8483 63.5742C64.885 61.8051 67.71 60.9205 71.3233 60.9205V50.2202C64.4251 50.2202 58.9722 52.0749 54.9646 55.7844C51.0227 59.4367 49.0518 64.4302 49.0518 70.7648Z" fill="#FA7878"/>
<rect width="13.8069" height="14.1285" rx="6.90343" transform="matrix(0 -1 -1 0 89.085 127.723)" fill="#FA7878"/>
<path d="M49.0518 120.985C49.0518 127.319 51.0556 132.342 55.0631 136.051C59.1364 139.703 64.5893 141.53 71.4219 141.53V130.829C67.8085 130.829 64.9835 129.945 62.9469 128.176C60.9102 126.406 59.8919 124.01 59.8919 120.985C59.8919 117.96 60.8774 115.563 62.8483 113.794C64.885 112.025 67.71 111.141 71.3233 111.141V100.44C64.4251 100.44 58.9722 102.295 54.9646 106.004C51.0227 109.657 49.0518 114.65 49.0518 120.985Z" fill="#FA7878"/>
<rect x="75.8047" y="189.78" width="14.1285" height="13.8069" rx="6.90343" transform="rotate(180 75.8047 189.78)" fill="#FA7878"/>
<path d="M68.9104 150.66C75.3926 150.66 80.5316 152.619 84.3274 156.535C88.0649 160.515 89.9336 165.844 89.9336 172.521H78.984C78.984 168.99 78.0789 166.229 76.2685 164.239C74.4582 162.249 72.0055 161.254 68.9104 161.254C65.8154 161.254 63.3627 162.217 61.5523 164.143C59.742 166.133 58.8368 168.894 58.8368 172.425H47.8873C47.8873 165.684 49.7852 160.355 53.5811 156.439C57.3185 152.586 62.4283 150.66 68.9104 150.66Z" fill="#FA7878"/>
<rect x="75.8047" y="238.03" width="14.1285" height="13.8069" rx="6.90343" transform="rotate(180 75.8047 238.03)" fill="#FA7878"/>
<path d="M68.9104 198.911C75.3926 198.911 80.5316 200.869 84.3274 204.785C88.0649 208.766 89.9336 214.095 89.9336 220.772H78.984C78.984 217.241 78.0789 214.48 76.2685 212.49C74.4582 210.499 72.0055 209.504 68.9104 209.504C65.8154 209.504 63.3627 210.467 61.5523 212.393C59.742 214.384 58.8368 217.144 58.8368 220.675H47.8873C47.8873 213.934 49.7852 208.605 53.5811 204.689C57.3185 200.837 62.4283 198.911 68.9104 198.911Z" fill="#FA7878"/>
<rect width="13.8069" height="14.1285" rx="6.90343" transform="matrix(0 -1 -1 0 136.973 27.2825)" fill="#FA7878"/>
<path d="M96.9395 20.5446C96.9395 26.8792 98.9433 31.9012 102.951 35.6106C107.024 39.263 112.477 41.0892 119.31 41.0892V30.3889C115.696 30.3889 112.871 29.5043 110.835 27.7352C108.798 25.9661 107.78 23.5692 107.78 20.5446C107.78 17.52 108.765 15.1231 110.736 13.354C112.773 11.5849 115.598 10.7003 119.211 10.7003V9.66236e-06C112.313 9.66236e-06 106.86 1.85473 102.852 5.56417C98.9104 9.21655 96.9395 14.21 96.9395 20.5446Z" fill="#FA7878"/>
<rect width="14.1285" height="13.8069" rx="6.90343" transform="matrix(1 0 0 -1 109.899 89.3396)" fill="#FA7878"/>
<path d="M116.794 50.2202C110.312 50.2202 105.173 52.1783 101.377 56.0947C97.6392 60.0752 95.7705 65.404 95.7705 72.081H106.72C106.72 68.5499 107.625 65.7892 109.436 63.7989C111.246 61.8087 113.699 60.8135 116.794 60.8135C119.889 60.8135 122.341 61.7766 124.152 63.7026C125.962 65.6929 126.867 68.4536 126.867 71.9847H137.817C137.817 65.2435 135.919 59.9147 132.123 55.9984C128.386 52.1462 123.276 50.2202 116.794 50.2202Z" fill="#FA7878"/>
<rect x="136.649" y="112.277" width="13.8069" height="14.1285" rx="6.90343" transform="rotate(90 136.649 112.277)" fill="#FA7878"/>
<path d="M96.6163 119.015C96.6163 112.68 98.62 107.658 102.628 103.949C106.701 100.297 112.154 98.4705 118.986 98.4705V109.171C115.373 109.171 112.548 110.055 110.511 111.824C108.475 113.594 107.456 115.99 107.456 119.015C107.456 122.04 108.442 124.437 110.413 126.206C112.449 127.975 115.274 128.859 118.888 128.859V139.56C111.99 139.56 106.537 137.705 102.529 133.995C98.5872 130.343 96.6163 125.35 96.6163 119.015Z" fill="#FA7878"/>
<rect width="13.8069" height="14.1285" rx="6.90343" transform="matrix(0 -1 -1 0 136.973 175.973)" fill="#FA7878"/>
<path d="M96.9395 169.235C96.9395 175.57 98.9433 180.592 102.951 184.301C107.024 187.954 112.477 189.78 119.31 189.78V179.079C115.696 179.079 112.871 178.195 110.835 176.426C108.798 174.657 107.78 172.26 107.78 169.235C107.78 166.211 108.765 163.814 110.736 162.045C112.773 160.275 115.598 159.391 119.211 159.391V148.691C112.313 148.691 106.86 150.545 102.852 154.255C98.9104 157.907 96.9395 162.901 96.9395 169.235Z" fill="#FA7878"/>
<rect width="14.1285" height="13.8069" rx="6.90343" transform="matrix(-1 0 0 1 123.689 198.911)" fill="#FA7878"/>
<path d="M116.795 238.03C123.277 238.03 128.416 236.072 132.212 232.156C135.95 228.175 137.818 222.846 137.818 216.169H126.869C126.869 219.7 125.964 222.461 124.153 224.451C122.343 226.442 119.89 227.437 116.795 227.437C113.7 227.437 111.247 226.474 109.437 224.548C107.627 222.557 106.722 219.797 106.722 216.266H95.772C95.772 223.007 97.67 228.336 101.466 232.252C105.203 236.104 110.313 238.03 116.795 238.03Z" fill="#FA7878"/>
<rect width="13.8069" height="14.1285" rx="6.90343" transform="matrix(0 -1 -1 0 184.858 27.2825)" fill="#FA7878"/>
<path d="M144.826 20.5447C144.826 26.8793 146.83 31.9013 150.838 35.6107C154.911 39.2631 160.364 41.0893 167.196 41.0893V30.389C163.583 30.389 160.758 29.5044 158.721 27.7353C156.685 25.9662 155.666 23.5693 155.666 20.5447C155.666 17.5201 156.652 15.1232 158.623 13.3541C160.659 11.585 163.484 10.7004 167.098 10.7004V0.000101215C160.199 0.000101215 154.747 1.85482 150.739 5.56427C146.797 9.21664 144.826 14.2101 144.826 20.5447Z" fill="#FA7878"/>
<rect width="14.1285" height="13.8069" rx="6.90343" transform="matrix(-1 0 0 1 171.574 50.2201)" fill="#FA7878"/>
<path d="M164.68 89.3396C171.162 89.3396 176.301 87.3814 180.097 83.4651C183.834 79.4845 185.703 74.1558 185.703 67.4787H174.754C174.754 71.0098 173.848 73.7705 172.038 75.7608C170.228 77.7511 167.775 78.7462 164.68 78.7462C161.585 78.7462 159.132 77.7832 157.322 75.8571C155.512 73.8668 154.606 71.1062 154.606 67.575H143.657C143.657 74.3163 145.555 79.645 149.351 83.5614C153.088 87.4135 158.198 89.3396 164.68 89.3396Z" fill="#FA7878"/>
<rect x="184.535" y="112.277" width="13.8069" height="14.1285" rx="6.90343" transform="rotate(90 184.535 112.277)" fill="#FA7878"/>
<path d="M144.504 119.015C144.504 112.681 146.508 107.659 150.515 103.949C154.589 100.297 160.041 98.4706 166.874 98.4706V109.171C163.261 109.171 160.436 110.055 158.399 111.825C156.362 113.594 155.344 115.991 155.344 119.015C155.344 122.04 156.33 124.437 158.3 126.206C160.337 127.975 163.162 128.859 166.775 128.859V139.56C159.877 139.56 154.424 137.705 150.417 133.996C146.475 130.343 144.504 125.35 144.504 119.015Z" fill="#FA7878"/>
<rect x="144.825" y="175.973" width="13.8069" height="14.1285" rx="6.90343" transform="rotate(-90 144.825 175.973)" fill="#FA7878"/>
<path d="M184.857 169.235C184.857 175.57 182.854 180.592 178.846 184.301C174.773 187.954 169.32 189.78 162.487 189.78V179.08C166.101 179.08 168.926 178.195 170.962 176.426C172.999 174.657 174.017 172.26 174.017 169.235C174.017 166.211 173.032 163.814 171.061 162.045C169.024 160.276 166.199 159.391 162.586 159.391V148.691C169.484 148.691 174.937 150.545 178.945 154.255C182.886 157.907 184.857 162.901 184.857 169.235Z" fill="#FA7878"/>
<rect width="13.8069" height="14.1285" rx="6.90343" transform="matrix(0 -1 -1 0 184.858 226.193)" fill="#FA7878"/>
<path d="M144.826 219.455C144.826 225.79 146.83 230.812 150.838 234.521C154.911 238.174 160.364 240 167.196 240V229.3C163.583 229.3 160.758 228.415 158.721 226.646C156.685 224.877 155.666 222.48 155.666 219.455C155.666 216.431 156.652 214.034 158.623 212.265C160.659 210.496 163.484 209.611 167.098 209.611V198.911C160.199 198.911 154.747 200.766 150.739 204.475C146.797 208.127 144.826 213.121 144.826 219.455Z" fill="#FA7878"/>
<rect x="219.463" y="39.9478" width="14.1285" height="13.8069" rx="6.90343" transform="rotate(180 219.463 39.9478)" fill="#FA7878"/>
<path d="M212.569 0.828422C219.051 0.828422 224.19 2.78659 227.986 6.70292C231.723 10.6835 233.592 16.0122 233.592 22.6893H222.642C222.642 19.1582 221.737 16.3975 219.927 14.4072C218.116 12.4169 215.664 11.4218 212.569 11.4218C209.474 11.4218 207.021 12.3848 205.211 14.3109C203.4 16.3012 202.495 19.0618 202.495 22.593H191.545C191.545 15.8517 193.443 10.523 197.239 6.60662C200.977 2.75449 206.087 0.828422 212.569 0.828422Z" fill="#FA7878"/>
<rect width="14.1285" height="13.8069" rx="6.90343" transform="matrix(1 0 0 -1 205.676 88.1981)" fill="#FA7878"/>
<path d="M212.569 49.0788C206.087 49.0788 200.948 51.0369 197.152 54.9533C193.415 58.9338 191.546 64.2626 191.546 70.9396H202.495C202.495 67.4085 203.401 64.6478 205.211 62.6575C207.021 60.6673 209.474 59.6721 212.569 59.6721C215.664 59.6721 218.117 60.6352 219.927 62.5612C221.737 64.5515 222.643 67.3122 222.643 70.8433H233.592C233.592 64.1021 231.694 58.7733 227.898 54.857C224.161 51.0048 219.051 49.0788 212.569 49.0788Z" fill="#FA7878"/>
<rect x="232.425" y="111.136" width="13.8069" height="14.1285" rx="6.90343" transform="rotate(90 232.425 111.136)" fill="#FA7878"/>
<path d="M192.393 117.874C192.393 111.539 194.396 106.517 198.404 102.808C202.477 99.1553 207.93 97.3291 214.763 97.3291V108.029C211.149 108.029 208.324 108.914 206.288 110.683C204.251 112.452 203.233 114.849 203.233 117.874C203.233 120.898 204.218 123.295 206.189 125.064C208.226 126.833 211.051 127.718 214.664 127.718V138.418C207.766 138.418 202.313 136.564 198.305 132.854C194.364 129.202 192.393 124.208 192.393 117.874Z" fill="#FA7878"/>
<rect width="14.1285" height="13.8069" rx="6.90343" transform="matrix(1 0 0 -1 205.676 186.669)" fill="#FA7878"/>
<path d="M212.569 147.549C206.087 147.549 200.948 149.507 197.152 153.424C193.415 157.404 191.546 162.733 191.546 169.41H202.495C202.495 165.879 203.401 163.118 205.211 161.128C207.021 159.138 209.474 158.143 212.569 158.143C215.664 158.143 218.117 159.106 219.927 161.032C221.737 163.022 222.643 165.783 222.643 169.314H233.592C233.592 162.572 231.694 157.244 227.898 153.327C224.161 149.475 219.051 147.549 212.569 147.549Z" fill="#FA7878"/>
<rect x="232.425" y="209.606" width="13.8069" height="14.1285" rx="6.90343" transform="rotate(90 232.425 209.606)" fill="#FA7878"/>
<path d="M192.393 216.344C192.393 210.01 194.396 204.988 198.404 201.278C202.477 197.626 207.93 195.8 214.763 195.8V206.5C211.149 206.5 208.324 207.384 206.288 209.154C204.251 210.923 203.233 213.32 203.233 216.344C203.233 219.369 204.218 221.766 206.189 223.535C208.226 225.304 211.051 226.188 214.664 226.188V236.889C207.766 236.889 202.313 235.034 198.305 231.325C194.364 227.672 192.393 222.679 192.393 216.344Z" fill="#FA7878"/>
</svg>
